<svg id="Layer_1" data-name="Layer 1" xmlns="http://www.w3.org/2000/svg" viewBox="0 0 234.95 80"><defs><style>.cls-1,.cls-2{fill:#fff;}.cls-1{fill-rule:evenodd;}.cls-2{font-size:24px;font-family:Bahnschrift, Bahnschrift;}.cls-3{letter-spacing:-0.02em;}.cls-4{letter-spacing:-0.01em;}.cls-5{letter-spacing:0.02em;}</style></defs><title>logo_white</title><g id="_Group_" data-name="&lt;Group&gt;"><path id="_Path_" data-name="&lt;Path&gt;" class="cls-1" d="M76.36,90c6.57,0,11.9,1.1,11.9,2.46s-5.33,2.46-11.9,2.46-11.9-1.1-11.9-2.46S69.79,90,76.36,90Z" transform="translate(-7.24 -14.88)"/><path id="_Compound_Path_" data-name="&lt;Compound Path&gt;" class="cls-1" d="M80,48.29V47h3.66v1.29Zm16.49,7c0-.59,1-.41,1.92-.41s.8,1.08.8,1.7C99.22,57.94,96.5,57.66,96.5,55.31ZM79.6,45.59h-.66V36.44h9.77l5.41,6.61c-2.12,0-1.89,0-1.89,2.54ZM89,60.33a1,1,0,0,1,0,2A1,1,0,0,1,89,60.33Zm-4.81,1c0,6.33,9.61,6.33,9.61,0S84.18,55,84.18,61.31ZM49.67,29.18h-10a1.32,1.32,0,0,0,0,2.64h10A1.32,1.32,0,0,0,49.67,29.18Zm5.78,5.27h-41a1.32,1.32,0,0,0,0,2.64h41A1.32,1.32,0,0,0,55.45,34.45ZM51.6,39.72H31a1.32,1.32,0,0,0,0,2.64H51.6A1.32,1.32,0,0,0,51.6,39.72ZM54.49,45H45a1.32,1.32,0,0,0,0,2.64h9.5A1.32,1.32,0,0,0,54.49,45Zm-4.82,5.27H8.54a1.32,1.32,0,0,0,0,2.64H49.67A1.32,1.32,0,0,0,49.67,50.26ZM42,55.54h-10a1.32,1.32,0,0,0,0,2.64H42A1.32,1.32,0,0,0,42,55.54Zm0,5.27H26a1.32,1.32,0,0,0,0,2.64H42A1.32,1.32,0,0,0,42,60.81ZM35.49,29.18H25.25a1.32,1.32,0,0,0,0,2.64H35.49A1.32,1.32,0,0,0,35.49,29.18ZM40.23,45h-16a1.32,1.32,0,0,0,0,2.64h16A1.32,1.32,0,0,0,40.23,45ZM27.66,55.54H16.78a1.32,1.32,0,0,0,0,2.64H27.66A1.32,1.32,0,0,0,27.66,55.54Zm-.84-15.81H19.15a1.32,1.32,0,0,0,0,2.64h7.67A1.32,1.32,0,0,0,26.82,39.72ZM54,23.91H32.57a1.32,1.32,0,0,0,0,2.64H75.83V53.6h1V33.76h2.14v.54H90.07c2.47,3,5.6,6.81,8.07,9.72,2.17,2.56,1.76,6.36,1.76,9.56,1.41,0,1.09,2.55,1.09,4.3a5.42,5.42,0,0,0-1,3,.48.48,0,0,1-.48.48H94.9c0-7.78-11.82-7.78-11.82,0H56.6a5.92,5.92,0,0,0-10.55-3.67q.22.64.47,1.27a4.81,4.81,0,1,1,4,7.2H34.44a1.32,1.32,0,0,0,0,2.64l18.17-.13q.51.56,1.05,1.1l22.7,22.7,22.73-22.7A32.12,32.12,0,0,0,54,23.91ZM50.69,60.33a1,1,0,0,1,0,2A1,1,0,0,1,50.69,60.33Z" transform="translate(-7.24 -14.88)"/></g><text class="cls-2" transform="translate(109.59 45.94)">E-<tspan class="cls-3" x="25.85" y="0">LO</tspan><tspan class="cls-4" x="54.16" y="0">G</tspan><tspan x="69.45" y="0">IS</tspan><tspan class="cls-5" x="90.83" y="0">T</tspan><tspan x="102.86" y="0">IC</tspan></text></svg>